<svg width="18" height="18" viewBox="0 0 18 18" fill="none" xmlns="http://www.w3.org/2000/svg">
<path d="M7.89585 4.31167L5.1687 1.26238C4.85431 0.910986 4.27793 0.912548 3.91275 1.26706L1.67008 3.44334C1.00261 4.09068 0.811552 5.05193 1.19769 5.82265C3.50454 10.4493 7.35659 14.1858 12.1297 16.4269C12.9245 16.8009 13.9161 16.6158 14.5835 15.9685L16.8472 13.7719C17.214 13.4166 17.2148 12.8552 16.8488 12.5506L13.6887 9.92299C13.3582 9.64813 12.8447 9.68405 12.5134 10.0058L11.4138 11.0724C11.3575 11.1296 11.2834 11.1673 11.2029 11.1797C11.1224 11.1921 11.0399 11.1785 10.968 11.1411C9.17071 10.1386 7.6798 8.69252 6.64715 6.95023C6.60848 6.88053 6.59448 6.80048 6.60729 6.72233C6.62011 6.64419 6.65903 6.57228 6.71809 6.51762L7.81443 5.45486C8.14656 5.13158 8.18284 4.63183 7.89585 4.31089V4.31167Z" stroke="white" stroke-width="1.1713" stroke-linecap="round" stroke-linejoin="round"/>
</svg>
